<?xml version="1.0" encoding="UTF-8"?>
<svg width="23px" height="21px" viewBox="0 0 23 21" version="1.1" xmlns="http://www.w3.org/2000/svg" xmlns:xlink="http://www.w3.org/1999/xlink">
    <!-- Generator: Sketch 54.1 (76490) - https://sketchapp.com -->
    <title>Group 9</title>
    <desc>Created with Sketch.</desc>
    <g id="Page-1" stroke="none" stroke-width="1" fill="none" fill-rule="evenodd">
        <g id="Group-9" fill="#0352CC">
            <path d="M15.5962319,13.238562 C17.2912561,14.9217362 18.9596405,16.5784299 20.6568456,18.2638153 L20.6568456,9.19798566 C18.938713,10.5698158 17.2778064,11.8959499 15.5962319,13.238562 L15.5962319,13.238562 Z M2.08152904,18.2948233 C3.80615285,16.581536 5.4927125,14.9061006 7.19853792,13.2115023 C5.48907745,11.8645734 3.81342296,10.5442302 2.08152904,9.17955982 L2.08152904,18.2948233 Z M3.43485839,19.3091922 L19.3272999,19.3091922 C17.6178394,17.6108035 15.953142,15.9569 14.2828881,14.2974161 C14.1819376,14.3741729 14.1053419,14.4301875 14.0311349,14.4892028 C13.3641551,15.0199197 12.6989408,15.5529529 12.0302992,16.081564 C11.6139301,16.4107548 11.2774283,16.4111233 10.8519196,16.0870391 C10.6235865,15.9133097 10.400654,15.7323153 10.1751251,15.5547428 C9.62971173,15.1253155 9.08409062,14.6959407 8.52325423,14.2545102 C6.83274796,15.9337361 5.15470472,17.6007482 3.43485839,19.3091922 L3.43485839,19.3091922 Z M19.8849686,7.65905943 C19.7082532,7.51212651 19.5422352,7.38977892 19.3966774,7.24626794 C19.3241841,7.17488097 19.2460305,7.06553677 19.2440572,6.97172291 C19.2306595,6.34092741 19.2370987,5.7096581 19.2370987,5.05364552 C19.2942728,5.0716502 19.3380492,5.07338749 19.3652602,5.09581437 C20.0907644,5.69223252 20.8352227,6.26727669 21.5321139,6.89638755 C22.1082175,7.41647007 22.3644366,8.11438828 22.365631,8.89822355 C22.3689025,10.9599699 22.3680717,13.0216635 22.3683832,15.0834098 C22.368539,16.2327085 22.3721222,17.3820072 22.3659945,18.5313058 C22.3584648,19.9537281 21.3143224,21.0001053 19.9083368,21 C14.2224944,20.9995262 8.53665199,20.9988418 2.85080961,20.9962095 C1.39289465,20.9955778 0.365733196,19.9225095 0.369575963,18.4409666 C0.377780792,15.3089421 0.380429186,12.1768124 0.37128963,9.04478795 C0.368641236,8.10817614 0.679178421,7.32597287 1.38271651,6.7215 C2.02258929,6.1716729 2.68048152,5.64337772 3.33136331,5.10671194 C3.36953134,5.07528272 3.41580034,5.05406668 3.50439172,5 C3.50439172,5.29681397 3.50423593,5.55477575 3.50449558,5.81268488 C3.50465137,5.94429802 3.49530409,6.07696408 3.50833835,6.20731374 C3.56348726,6.76087865 3.53274512,7.27459109 2.9567973,7.56403473 C2.92917092,7.57793308 2.9135402,7.61594296 2.87459323,7.66521892 C3.0386898,7.79820085 3.19634714,7.92912961 3.35717217,8.05589939 C5.96012809,10.1060637 8.56469381,12.1541223 11.1640666,14.2089721 C11.3523103,14.3578002 11.4789139,14.3960207 11.6902662,14.2260818 C14.3271838,12.1056886 16.9728256,9.99656161 19.6159229,7.88417056 C19.6965172,7.8197854 19.7743072,7.75182037 19.8849686,7.65905943 L19.8849686,7.65905943 Z" id="Fill-1"></path>
            <path d="M16.9768735,8 C16.9768735,7.36423616 16.9767685,6.80718409 16.9768735,6.25013202 C16.9771362,4.71304316 16.9786069,3.1758572 16.9769261,1.63876834 C16.9765058,1.26113637 16.9523966,1.24788017 16.5424339,1.2487542 C15.467339,1.25098785 14.3922442,1.24768594 13.3171493,1.24957968 C11.2977484,1.25317294 9.27834747,1.25963109 7.25894656,1.26298156 C6.87440632,1.26361281 6.48960346,1.26162195 6.10537837,1.24851141 C5.87163926,1.24049942 5.77520217,1.32086215 5.77583248,1.54359557 C5.78145273,3.54183536 5.77992948,5.5401237 5.78050726,7.53836349 C5.78055979,7.65558139 5.78050726,7.77275072 5.78050726,7.95717225 C5.49040813,7.75444453 5.27867726,7.57201386 5.03411786,7.44265658 C4.49389162,7.1570897 4.35616938,6.75556743 4.3705614,6.18472501 C4.41625871,4.37343175 4.3869494,2.56058464 4.38547869,0.74832022 C4.38505848,0.238320402 4.63523812,0.001990867 5.18113714,0.00189375192 C9.31170125,0.0012139464 13.4423704,0.000437025795 17.5729871,7.95670268e-09 C18.1164174,-4.85495809e-05 18.3661243,0.222150742 18.3669647,0.721419344 C18.3702213,2.73597446 18.3709566,4.75048103 18.3660192,6.76498759 C18.3658091,6.86084017 18.3345564,6.99126571 18.2638043,7.04662131 C17.8653448,7.3587006 17.4503922,7.65276505 16.9768735,8" id="Fill-4"></path>
            <path d="M12.2013244,6.20128854 C12.1783105,6.19487904 12.1553527,6.18846954 12.1323388,6.18206004 C12.143509,5.69834959 11.9477785,5.38965982 11.5768056,5.30576775 C11.186748,5.21763713 10.8165047,5.4272381 10.6042716,5.871251 C10.4214514,6.25365001 10.3227723,6.64881633 10.4098883,7.0723085 C10.4805578,7.41552686 10.7058135,7.68146939 10.9905684,7.72680109 C11.3111353,7.77781864 11.6883388,7.61370444 11.8316986,7.29276426 C11.98853,6.9416891 12.0808663,6.56621649 12.2013244,6.20128854 M12.0256329,7.57850389 C11.9668632,7.6621892 11.9181411,7.7193578 11.8833957,7.78309097 C11.6537057,8.20379191 11.269598,8.41339288 10.7740132,8.4019695 C10.229594,8.38946063 9.78289972,8.15742642 9.57061047,7.68606976 C9.21243552,6.89072324 9.34333412,5.64893441 10.1866534,4.99837022 C10.5397204,4.72596649 10.9446529,4.594365 11.4059414,4.63716391 C11.7315601,4.66740228 11.9760688,4.82422826 12.124312,5.12764569 C12.3376116,4.69495279 12.5020769,4.64228117 13.2068075,4.76349308 C13.1659438,5.21624151 13.1162113,5.67390045 13.0857881,6.13259318 C13.0596869,6.52564022 13.0282533,6.92173695 13.056712,7.31292317 C13.0667595,7.45150276 13.2209527,7.65252327 13.3556121,7.69247926 C13.4940884,7.73346904 13.7270341,7.65340199 13.8523195,7.55483009 C14.2511898,7.24102306 14.3257885,6.77793673 14.3696834,6.33614647 C14.459606,5.43163171 14.1839443,4.63845615 13.3418599,4.09711189 C12.6538002,3.65475305 11.8652652,3.5795965 11.0569158,3.69879252 C9.3461407,3.95098564 8.17753948,5.44207299 8.37489775,7.01648382 C8.56248915,8.51274012 9.75292551,9.25391603 11.1900036,9.32364518 C11.822044,9.35429706 12.4409497,9.28627366 13.0355504,9.07801662 C13.264623,8.99784619 13.3546017,9.04824346 13.3539281,9.28575677 C13.3527494,9.71064455 13.363246,9.72780547 12.9051009,9.82301755 C11.7338053,10.0666302 10.560882,10.1010554 9.43875763,9.65399285 C8.33858069,9.2156141 7.63446744,8.44688768 7.43581814,7.33582163 C7.1366935,5.66325241 7.85624291,4.24375504 9.4770393,3.43832907 C9.93153587,3.2124459 10.4770777,3.09061372 10.9951151,3.03623636 C11.7840991,2.95332638 12.5735884,3.00439562 13.3398953,3.27607569 C15.5622527,4.06397892 15.8004186,6.40049991 14.820812,7.61422134 C14.4132975,8.11912449 13.8525441,8.39313059 13.1636986,8.40398539 C12.6184374,8.41256585 12.3014068,8.18818168 12.1261644,7.71289662 C12.1125244,7.6759903 12.0770493,7.64590701 12.0256329,7.57850389" id="Fill-7"></path>
        </g>
    </g>
</svg>