<?xml version="1.0" encoding="UTF-8"?>
<svg width="16px" height="16px" viewBox="0 0 16 16" version="1.1" xmlns="http://www.w3.org/2000/svg" xmlns:xlink="http://www.w3.org/1999/xlink">
    <!-- Generator: Sketch 54.1 (76490) - https://sketchapp.com -->
    <title>Group 6</title>
    <desc>Created with Sketch.</desc>
    <g id="Page-1" stroke="none" stroke-width="1" fill="none" fill-rule="evenodd">
        <g id="Group-6" fill="#0352CC">
            <g id="Group-3" transform="translate(0.000000, 0.005634)">
                <path d="M11.5732964,3.77887008 C11.4350119,3.16788583 9.64882213,1.78122441 9.05290909,1.78348425 C9.04798419,1.79081496 9.03735968,1.79979921 9.03890909,1.80520079 C9.24099605,2.50812205 9.4415336,3.21148425 9.65181028,3.91187008 C9.66752569,3.96401181 9.75932806,4.03594094 9.80669565,4.02982283 C10.395415,3.95375984 10.982419,3.86496457 11.5732964,3.77887008 M4.97879842,1.79329528 L4.90813439,1.73531102 C3.88995257,2.15448425 3.04054545,2.78746063 2.36705138,3.73521654 C2.53040316,3.77661024 2.63360474,3.81188583 2.73979447,3.82803543 C3.17534387,3.89439764 3.61393676,3.94367323 4.04716206,4.02232677 C4.26845059,4.06250787 4.33164427,3.97746063 4.38067194,3.78074409 C4.50650593,3.27531102 4.65486166,2.77527953 4.80128063,2.2751378 C4.84920158,2.11127165 4.91898024,1.95374409 4.97879842,1.79329528 M4.96590514,12.3065787 C4.96590514,12.2087992 4.97403953,12.1721457 4.96463241,12.1407283 C4.76564427,11.4738543 4.56178656,10.8084685 4.36606324,10.1406575 C4.31803162,9.97679134 4.21267194,9.95579134 4.06979447,9.97640551 C3.80573123,10.014437 3.53995257,10.0419961 3.27705138,10.0864764 C2.9855415,10.135752 2.69641107,10.1990827 2.34718577,10.2679803 C3.04331225,11.244122 3.88807115,11.8866339 4.96590514,12.3065787 M6.95362846,4.16111417 C7.34048221,4.16111417 7.72733597,4.16315354 8.11413439,4.15990157 C8.24301186,4.15885433 8.36403162,4.13504331 8.32513043,3.95646063 C8.15652174,3.1827126 7.94890119,2.42009843 7.48701186,1.76121654 C7.11819763,1.23511417 6.85679051,1.2464685 6.48664822,1.78574409 C6.04174704,2.43409843 5.83855336,3.17731102 5.66667984,3.93083071 C5.62656126,4.10682283 5.71670356,4.16265748 5.87590514,4.16194094 C6.23509091,4.16039764 6.59433202,4.16144488 6.95362846,4.16111417 M1.32878261,7.01331102 C1.34416601,7.6353189 1.47437154,8.23687795 1.62112253,8.8481378 C1.64032411,8.92800394 1.78325692,9.04540551 1.85358893,9.03570472 C2.54567589,8.94012992 3.23433202,8.81936614 3.92470356,8.71045276 C4.09386561,8.68372047 4.13558893,8.60942126 4.13188142,8.43232677 C4.11273518,7.49697244 4.09585771,6.56073622 4.12219763,5.62598819 C4.12955731,5.36279921 4.04190514,5.31412992 3.83085375,5.28315354 C3.20290119,5.19094094 2.57456126,5.09839764 1.95086957,4.98187795 C1.75038735,4.94439764 1.64718577,4.9899252 1.60706719,5.17754724 C1.50574704,5.65051575 1.36967589,6.09785433 1.33730435,6.58537402 C1.32778656,6.7292874 1.32535178,6.87182283 1.32878261,7.01331102 M8.23941502,10.680815 C8.54403953,11.6341378 8.85585771,12.6100039 9.16706719,13.5841063 C6.85064822,14.4394291 3.36758103,13.8964606 1.31511462,11.0620118 C-0.663256917,8.3298622 -0.377944664,4.55283858 1.95778656,2.18518504 C4.47269565,-0.364137795 8.27505138,-0.686854331 11.1339289,1.39677559 C13.9110751,3.42087795 14.4536443,6.79432677 13.6301897,9.08101181 C13.2881581,8.92442126 12.9419209,8.78006693 12.6136126,8.60280709 C12.5522451,8.5696811 12.5260711,8.39666535 12.5459921,8.30114567 C12.7626877,7.26393307 12.732087,6.2429252 12.4021739,5.23046063 C12.3280791,5.00315354 12.2403715,4.93750787 11.9876522,4.98926378 C11.3843794,5.11300394 10.7726957,5.19887795 10.1619526,5.2827126 C9.93905929,5.31335827 9.85024506,5.38749213 9.85915415,5.62918504 C9.87973913,6.18653937 9.86573913,6.74505118 9.86573913,7.33823228 C9.49205534,7.16174409 9.10171542,6.98591732 8.72233202,6.78914567 C8.66505929,6.75949213 8.63988142,6.63437402 8.63207905,6.55042913 C8.60568379,6.26739764 8.58786561,5.98326378 8.57856917,5.69912992 C8.57264822,5.51878346 8.50812648,5.43875197 8.31306719,5.44046063 C7.43781818,5.44779134 6.56240316,5.44795669 5.68720949,5.43930315 C5.49275889,5.43737402 5.41949407,5.52082283 5.41340711,5.69499606 C5.39503557,6.21746063 5.3696917,6.7399252 5.36316206,7.26255512 C5.35906719,7.59260236 5.38452174,7.92298031 5.39536759,8.25324803 C5.40300395,8.48501969 5.49331225,8.59106693 5.75355731,8.57772835 C6.26884585,8.55138189 6.78607115,8.56653937 7.30218972,8.55320079 C7.48988933,8.54829528 7.59010277,8.61879134 7.64106719,8.79787008 C7.73801581,9.13816929 7.84835573,9.47483071 7.96356522,9.84665748 L5.68239526,9.84665748 C5.67154941,9.93297244 5.65085375,9.98781496 5.66059289,10.0365945 C5.81442688,10.8057677 6.03228458,11.554437 6.47375494,12.2144764 C6.85673518,12.7870984 7.16412648,12.7973504 7.51694862,12.2033425 C7.80497233,11.7183583 8.00573123,11.1818937 8.23941502,10.680815" id="Fill-1"></path>
            </g>
            <path d="M14.9951265,16.0056338 C14.2015658,15.2120134 13.4300756,14.4405154 12.6120816,13.6225037 C12.1845004,14.3025729 11.7871726,14.9344268 11.3567101,15.6189824 C10.5668373,13.402363 9.79465565,11.2355576 9,9.0056338 C11.3504289,9.98247273 13.6393714,10.9337859 16,11.9148533 C15.1793553,12.2151811 14.4249798,12.4912723 13.618511,12.7863918 C13.8069463,12.9801817 13.9538914,13.1346772 14.1046973,13.2860788 C14.6795117,13.8630134 15.2507532,14.442939 15.8344419,15.0126028 C15.9839801,15.1584866 15.9662891,15.2463057 15.8048801,15.364962 C15.538996,15.5604535 15.2881522,15.7722403 14.9951265,16.0056338" id="Fill-4"></path>
        </g>
    </g>
</svg>