<?xml version="1.0" encoding="UTF-8"?>
<svg width="120px" height="79px" viewBox="0 0 120 79" version="1.1" xmlns="http://www.w3.org/2000/svg" xmlns:xlink="http://www.w3.org/1999/xlink">
    <!-- Generator: Sketch 52.6 (67491) - http://www.bohemiancoding.com/sketch -->
    <title>Group 4</title>
    <desc>Created with Sketch.</desc>
    <defs>
        <filter x="-10.2%" y="-6.6%" width="120.1%" height="113.2%" filterUnits="objectBoundingBox" id="filter-1">
            <feOffset dx="0" dy="2" in="SourceAlpha" result="shadowOffsetOuter1"></feOffset>
            <feGaussianBlur stdDeviation="10" in="shadowOffsetOuter1" result="shadowBlurOuter1"></feGaussianBlur>
            <feColorMatrix values="0 0 0 0 0.631372549   0 0 0 0 0.631372549   0 0 0 0 0.631372549  0 0 0 0.5 0" type="matrix" in="shadowBlurOuter1" result="shadowMatrixOuter1"></feColorMatrix>
            <feMerge>
                <feMergeNode in="shadowMatrixOuter1"></feMergeNode>
                <feMergeNode in="SourceGraphic"></feMergeNode>
            </feMerge>
        </filter>
    </defs>
    <g id="Page-1" stroke="none" stroke-width="1" fill="none" fill-rule="evenodd">
        <g id="Chatbot-Typing" transform="translate(-1758.000000, -890.000000)">
            <g id="Group-3" filter="url(#filter-1)" transform="translate(1453.000000, 307.000000)">
                <g id="Group-4" transform="translate(324.000000, 601.600000)">
                    <rect id="Rectangle" fill="#C58192" x="0" y="0" width="81.6" height="38.4" rx="19.2"></rect>
                    <path d="M59.8313897,26.5395831 C59.2865196,26.4937363 58.8381135,26.2549273 58.6451855,25.7359685 C58.2669657,24.7188904 57.94074,23.6824371 57.5947497,22.6533059 C57.4876174,22.3347438 57.5716163,22.0862473 57.9051415,21.9882456 C58.2401265,21.8896806 58.4318193,22.0722793 58.5354703,22.3794641 C58.8349692,23.2663239 59.1253719,24.1567882 59.447555,25.0353122 C59.5145969,25.2183615 59.7029207,25.3564651 59.8354324,25.5152956 C59.9582864,25.3677297 60.127295,25.2390883 60.1974812,25.0694438 C61.6490456,21.5570378 63.0915139,18.0408017 64.5249983,14.5208484 C64.5935001,14.3526684 64.5622812,14.1435979 64.5775538,13.9535646 C64.3890054,13.960098 64.1792326,13.9140259 64.0150529,13.9809375 C60.4857503,15.4181842 56.9606027,16.865569 53.4397225,18.3234298 C53.2749813,18.3916931 53.1576298,18.5753057 53.0183802,18.7051862 C53.1543732,18.8151284 53.2738583,18.9711427 53.4292787,19.0274656 C54.4122234,19.3846651 55.3969649,19.7398371 56.3965297,20.045107 C56.5909176,20.1044713 56.9083841,20.0086098 57.0748098,19.8701682 C58.4277765,18.7442742 59.7536794,17.5856004 61.1018173,16.4536236 C61.2717242,16.3110141 61.5214751,16.2067042 61.7377611,16.1999454 C61.8575831,16.1962281 62.0916122,16.43729 62.0852112,16.5580462 C62.0738691,16.7698201 61.970218,17.0351008 61.8132254,17.1711768 C60.6105134,18.2138256 59.3233534,19.1664704 58.1879079,20.276256 C57.3205179,21.1242529 56.5224158,21.3325349 55.4253763,20.7856399 C54.6460279,20.3970122 53.7731353,20.1993189 52.9469587,19.9023848 C52.3284211,19.6801348 51.9947837,19.2359728 52.0000617,18.6520174 C52.0055643,18.0361833 52.3325762,17.6395577 52.8873284,17.4124639 C56.5347686,15.9188944 60.1827702,14.4266766 63.8287505,12.9295024 C64.3924866,12.6979028 64.8944588,12.7693202 65.3209667,13.2054844 C65.7342235,13.6280185 65.7789181,14.1245608 65.5587017,14.6615429 C64.0533465,18.3342438 62.5511357,22.0081839 61.0439838,25.6802089 C60.8241043,26.2159519 60.4119705,26.4976789 59.8313897,26.5395831" id="Fill-1" stroke="#FFFFFF" stroke-width="0.5" fill="#FFFFFF"></path>
                    <text id="Send" font-family="Montserrat-SemiBold, Montserrat" font-size="12.24" font-weight="500" fill="#FFFFFF">
                        <tspan x="16" y="23.2">Send</tspan>
                    </text>
                </g>
            </g>
        </g>
    </g>
</svg>
