<svg width="32" height="20" viewBox="0 0 32 20" fill="none" xmlns="http://www.w3.org/2000/svg">
<path d="M31.45 9.52761C31.4367 9.18691 31.2964 8.79303 31.0627 8.54472L23.4384 0.443753C22.9218 -0.0205908 21.931 -0.212047 21.3536 0.324761C20.7849 0.853587 20.8019 1.8787 21.3683 2.4095L26.729 8.09804L1.42962 8.09804C0.640203 8.09804 -4.51193e-07 8.73822 -4.16685e-07 9.52766C-3.82177e-07 10.3171 0.640177 10.9573 1.42962 10.9573L26.729 10.9573L21.3683 16.6458C20.8803 17.1344 20.7902 18.1961 21.3536 18.7306C21.9167 19.2654 22.9428 19.0945 23.4384 18.6112L31.0627 10.5103C31.3237 10.2331 31.4506 9.90765 31.45 9.52738L31.45 9.52761Z" fill="#7C5FF4"/>
</svg>
