<svg width="31" height="17" viewBox="0 0 31 17" fill="none" xmlns="http://www.w3.org/2000/svg">
<path d="M15.2216 0.0129173C14.6119 0.0716885 14.0354 0.317945 13.5715 0.717336L1.11136 11.3974C0.484328 11.8999 0.0882547 12.6354 0.0129431 13.4353C-0.0619691 14.2354 0.190499 15.0312 0.71323 15.6417C1.23555 16.2522 1.9834 16.6247 2.78515 16.6739C3.58725 16.7232 4.37487 16.445 4.96832 15.9029L15.4999 6.87279L26.0314 15.9029C26.6249 16.4446 27.4125 16.7228 28.2146 16.6735C29.0163 16.6247 29.7641 16.2522 30.2865 15.6417C30.8092 15.0312 31.0617 14.235 30.9868 13.4349C30.9115 12.6349 30.5154 11.8999 29.8884 11.3974L17.4283 0.717336C16.8186 0.192952 16.0223 -0.0611765 15.2219 0.0125034L15.2216 0.0129173Z" fill="#7C5FF4"/>
</svg>
