<svg width="31" height="17" viewBox="0 0 31 17" fill="none" xmlns="http://www.w3.org/2000/svg">
<path d="M15.7784 16.6665C16.3881 16.6078 16.9646 16.3615 17.4285 15.9621L29.8886 5.28201C30.5157 4.77956 30.9117 4.04405 30.9871 3.24411C31.062 2.44407 30.8095 1.64824 30.2868 1.03773C29.7645 0.427261 29.0166 0.0547732 28.2149 0.00551581C27.4128 -0.0437358 26.6251 0.234398 26.0317 0.776571L15.5001 9.80665L4.96859 0.776569C4.37508 0.234798 3.58749 -0.0433297 2.78542 0.00592748C1.98374 0.0547651 1.23586 0.427259 0.713508 1.03773C0.190776 1.6482 -0.06169 2.44447 0.0132191 3.24453C0.088546 4.04456 0.484628 4.77958 1.11164 5.28201L13.5717 15.9621C14.1814 16.4865 14.9777 16.7406 15.7781 16.6669L15.7784 16.6665Z" fill="#7C5FF4"/>
</svg>
