<svg width="30" height="31" viewBox="0 0 30 31" fill="none" xmlns="http://www.w3.org/2000/svg">
<circle cx="15.0761" cy="16.0739" r="14.1889" fill="#7C5FF4"/>
<path d="M21.3761 16.6627C21.4827 16.5563 21.5669 16.4295 21.624 16.29C21.7396 16.0104 21.7396 15.6967 21.624 15.4172C21.5669 15.2776 21.4827 15.1509 21.3761 15.0445L15.6626 9.33098C15.3723 9.05066 14.9558 8.9443 14.5666 9.05092C14.1773 9.15753 13.8733 9.46158 13.7667 9.85081C13.66 10.24 13.7664 10.6566 14.0467 10.9468L17.8108 14.7109L7.99986 14.7109C7.5915 14.7109 7.21427 14.9287 7.01021 15.2823C6.80616 15.6358 6.80616 16.0714 7.01021 16.425C7.21427 16.7785 7.59151 16.9963 7.99986 16.9963L17.8108 16.9963L14.0478 20.7593L14.048 20.7593C13.7677 21.0496 13.6611 21.4661 13.7677 21.8554C13.8746 22.2443 14.1786 22.5484 14.5676 22.6553C14.9568 22.7619 15.3734 22.6553 15.6636 22.3749L21.3761 16.6627Z" fill="white"/>
<path d="M29.7109 15.8537C29.7109 11.9139 28.1458 8.1355 25.36 5.34926C22.5741 2.56341 18.7956 0.998291 14.8556 0.99829C10.9155 0.99829 7.13741 2.56341 4.35116 5.34926C1.56531 8.13511 0.000192165 11.9136 0.000191993 15.8537C0.000191821 19.7937 1.56531 23.5718 4.35116 26.3581C7.13701 29.1439 10.9155 30.709 14.8556 30.709C18.794 30.7044 22.5698 29.138 25.3547 26.353C28.1398 23.5682 29.7062 19.7925 29.7108 15.8538L29.7109 15.8537ZM2.286 15.8537C2.286 12.5199 3.61029 9.32261 5.96766 6.96537C8.32503 4.608 11.522 3.2837 14.856 3.2837C18.1899 3.2837 21.387 4.608 23.7442 6.96537C26.1016 9.32274 27.4259 12.5197 27.4259 15.8537C27.4259 19.1876 26.1016 22.3847 23.7442 24.742C21.3869 27.0993 18.1899 28.4236 14.856 28.4236C11.5235 28.4198 8.32849 27.0942 5.97224 24.7376C3.61565 22.3813 2.29004 19.1863 2.28626 15.8539L2.286 15.8537Z" fill="#7C5FF4"/>
</svg>
