<svg width="36" height="32" viewBox="0 0 36 32" fill="none" xmlns="http://www.w3.org/2000/svg">
<path d="M15.7693 29.6799L15.5511 29.8858L15.5565 29.8915L15.5622 29.897C16.2349 30.5385 17.1145 30.8556 17.9881 30.8556C18.8621 30.8556 19.7394 30.5383 20.4115 29.8969L20.4117 29.8971L20.4195 29.8891L20.2044 29.6799C20.4195 29.8891 20.4195 29.889 20.4196 29.8889L20.42 29.8885L20.4216 29.8869L20.428 29.8803L20.4532 29.8544L20.5516 29.7533L20.925 29.3694L22.2589 27.9984C23.3634 26.8632 24.8374 25.3483 26.3152 23.8297C27.7931 22.311 29.2748 20.7886 30.395 19.6383C30.955 19.0631 31.4246 18.581 31.7581 18.2389L32.1504 17.8367L32.259 17.7257L32.2892 17.695C32.2942 17.6899 32.297 17.6871 32.2983 17.6859C32.2985 17.6857 32.2986 17.6855 32.2987 17.6854C32.2991 17.685 32.2991 17.685 32.2988 17.6853L32.09 17.4699C35.97 13.7812 35.97 7.80381 32.09 4.11897L15.7693 29.6799ZM15.7693 29.6799C15.5511 29.8858 15.5511 29.8858 15.551 29.8857L15.5506 29.8853L15.5491 29.8837L15.5433 29.8775L15.5202 29.8531L15.4301 29.7576L15.087 29.3943C14.7909 29.0808 14.3666 28.6317 13.854 28.0895C12.8287 27.0051 11.4503 25.5483 10.0372 24.0586C7.20606 21.0739 4.2495 17.9712 3.70317 17.4511L15.7693 29.6799ZM17.8193 8.37919L18.0277 8.57478L18.2331 8.37598L19.7214 6.93567C19.7215 6.93565 19.7215 6.93563 19.7215 6.93562C20.7653 5.92598 21.8373 5.11248 22.8274 4.55318C23.8239 3.99027 24.7109 3.69992 25.3913 3.69992C27.3448 3.69992 28.8756 4.32974 30.3878 5.76613C31.8034 7.11199 32.5803 8.8963 32.5803 10.7921C32.5803 12.6889 31.8054 14.4746 30.3727 15.8353L30.3727 15.8353L30.3703 15.8377C30.2527 15.9519 24.6031 21.7577 19.4749 27.0277L18.476 28.0543C18.3003 28.2095 18.0989 28.2356 17.9893 28.2356C17.8786 28.2356 17.6808 28.2104 17.5073 28.0627C16.1665 26.6424 6.7227 16.6415 5.61503 15.5873L5.61484 15.5871C4.19691 14.2399 3.42115 12.4543 3.42115 10.5574C3.42115 8.66212 4.19821 6.87714 5.61578 5.53027L5.61599 5.53007C6.98384 4.22797 8.58407 3.70956 10.5439 3.70956H10.5921C11.5394 3.72398 13.3388 4.17818 16.3078 6.96115L17.8193 8.37919ZM32.2968 3.90164C30.3201 2.02073 28.095 1.07964 25.3904 1.07964C24.0652 1.07964 22.6871 1.58124 21.3899 2.32326C20.173 3.01933 19.0083 3.93782 17.9977 4.89093C16.9618 3.93974 15.8013 3.02271 14.5854 2.3281C13.2893 1.58765 11.9115 1.08916 10.5439 1.08916H10.5439C7.94497 1.08916 5.63053 1.83183 3.70344 3.66659C3.70335 3.66668 3.70325 3.66677 3.70316 3.66686L3.91003 3.88413L32.2968 3.90164Z" fill="#7C5FF4" stroke="#7C5FF4" stroke-width="0.6"/>
</svg>
