<svg width="31" height="31" viewBox="0 0 31 31" fill="none" xmlns="http://www.w3.org/2000/svg">
<path d="M23.25 15.4998C23.25 19.78 19.7803 23.2497 15.5 23.2497C11.2197 23.2497 7.75 19.78 7.75 15.4998C7.75 11.2195 11.2197 7.74976 15.5 7.74976C19.7803 7.74976 23.25 11.2195 23.25 15.4998Z" fill="#7C5FF4"/>
<path d="M15.5002 5.5357C15.7938 5.5357 16.0755 5.41905 16.2831 5.21146C16.4907 5.00387 16.6074 4.72214 16.6074 4.42855V1.10713C16.6074 0.711472 16.3963 0.345982 16.0538 0.148278C15.7113 -0.049426 15.2892 -0.049426 14.9466 0.148278C14.6041 0.345982 14.3931 0.711484 14.3931 1.10713V4.42855C14.3931 4.72214 14.5097 5.00387 14.7173 5.21146C14.9249 5.41905 15.2066 5.5357 15.5002 5.5357Z" fill="#7C5FF4"/>
<path d="M15.5002 25.4641C15.2066 25.4641 14.9249 25.5808 14.7173 25.7883C14.5097 25.9959 14.3931 26.2777 14.3931 26.5713V29.8927C14.3931 30.2883 14.6041 30.6538 14.9466 30.8515C15.2892 31.0492 15.7113 31.0492 16.0538 30.8515C16.3963 30.6538 16.6074 30.2883 16.6074 29.8927V26.5713C16.6074 26.2777 16.4907 25.9959 16.2831 25.7883C16.0755 25.5808 15.7938 25.4641 15.5002 25.4641Z" fill="#7C5FF4"/>
<path d="M23.3283 8.77859C23.6219 8.77859 23.9034 8.66194 24.111 8.45411L26.4604 6.10589C26.7402 5.82614 26.8497 5.41813 26.7471 5.03582C26.6448 4.65376 26.346 4.35496 25.964 4.25266C25.5816 4.1501 25.1736 4.25958 24.8939 4.53933L22.5457 6.88881C22.3381 7.0964 22.2214 7.37788 22.2214 7.67147C22.2214 7.96505 22.3381 8.24653 22.5457 8.45412C22.7533 8.66196 23.0347 8.7786 23.3283 8.7786L23.3283 8.77859Z" fill="#7C5FF4"/>
<path d="M6.88905 22.5459L4.53957 24.8941C4.33173 25.1017 4.21509 25.3836 4.21509 25.6772C4.21509 25.9711 4.33174 26.2528 4.53957 26.4606C4.7474 26.6685 5.02913 26.7851 5.32298 26.7851C5.61657 26.7851 5.89855 26.6685 6.10614 26.4606L8.45436 24.1124C8.66813 23.9061 8.78972 23.6226 8.79244 23.3255C8.79491 23.0287 8.67826 22.7431 8.4682 22.5333C8.25814 22.3232 7.97271 22.2063 7.67568 22.209C7.37863 22.2115 7.09517 22.3333 6.88904 22.5469L6.88905 22.5459Z" fill="#7C5FF4"/>
<path d="M24.1112 22.5459C23.9051 22.3321 23.6216 22.2105 23.3246 22.2078C23.0275 22.2053 22.7421 22.322 22.532 22.532C22.322 22.7421 22.2053 23.0275 22.2078 23.3246C22.2105 23.6216 22.3321 23.9051 22.5459 24.1112L24.8941 26.4607C25.1739 26.7404 25.5819 26.8499 25.9642 26.7474C26.3462 26.645 26.645 26.3463 26.7473 25.9642C26.8499 25.5819 26.7404 25.1739 26.4607 24.8941L24.1112 22.5459Z" fill="#7C5FF4"/>
<path d="M6.88905 8.45411C7.17004 8.72571 7.57383 8.82901 7.9507 8.72547C8.32782 8.62217 8.62239 8.32758 8.7257 7.95047C8.82925 7.5736 8.72595 7.16977 8.45435 6.88881L6.10614 4.53933C5.82638 4.25958 5.41838 4.1501 5.03607 4.25266C4.654 4.35497 4.35521 4.65375 4.25291 5.03582C4.15035 5.41813 4.25983 5.82613 4.53957 6.10589L6.88905 8.45411Z" fill="#7C5FF4"/>
<path d="M5.5357 15.5C5.5357 15.2064 5.41905 14.9246 5.21146 14.7171C5.00387 14.5095 4.72214 14.3928 4.42855 14.3928H1.10713C0.711472 14.3928 0.345982 14.6039 0.148278 14.9464C-0.049426 15.2889 -0.049426 15.711 0.148278 16.0535C0.345982 16.3961 0.711484 16.6071 1.10713 16.6071H4.42855C4.72214 16.6071 5.00387 16.4905 5.21146 16.2829C5.41905 16.0753 5.5357 15.7936 5.5357 15.5Z" fill="#7C5FF4"/>
<path d="M29.8929 14.3928H26.5715C26.1758 14.3928 25.8103 14.6039 25.6126 14.9464C25.4149 15.2889 25.4149 15.711 25.6126 16.0535C25.8103 16.3961 26.1758 16.6071 26.5715 16.6071H29.8929C30.2886 16.6071 30.6541 16.3961 30.8518 16.0535C31.0495 15.711 31.0495 15.2889 30.8518 14.9464C30.6541 14.6039 30.2886 14.3928 29.8929 14.3928Z" fill="#7C5FF4"/>
</svg>
