<svg width="31" height="30" viewBox="0 0 31 30" fill="none" xmlns="http://www.w3.org/2000/svg">
<path d="M28.1264 10.5002C27.091 10.5002 26.2513 9.66098 26.2513 8.62509V7.30722C26.2513 7.20782 26.2116 7.1126 26.1415 7.04197C25.995 6.89547 25.7575 6.89547 25.611 7.04197L20.2778 12.3752C19.5459 13.1076 18.3582 13.1076 17.6263 12.3752C16.8938 11.6433 16.8938 10.4556 17.6263 9.72371L22.9595 4.3905C23.0296 4.31987 23.0694 4.22465 23.0694 4.12524C23.0694 3.91806 22.9014 3.75012 22.6943 3.75012H21.3764C20.3405 3.75012 19.5013 2.91043 19.5013 1.87506C19.5013 0.839692 20.3405 0 21.3764 0H28.1263C29.1617 0 30.0014 0.839692 30.0014 1.87506V8.62501C30.0014 9.6609 29.1617 10.5001 28.1263 10.5001L28.1264 10.5002ZM1.87554 19.4992C2.91091 19.4992 3.7506 20.3389 3.7506 21.3743V22.6927C3.7506 22.7926 3.78984 22.8879 3.86047 22.958C4.00697 23.1045 4.24448 23.1045 4.39097 22.958L9.72471 17.6237C10.4572 16.8918 11.6442 16.8918 12.3767 17.6237L12.3772 17.6242C13.1092 18.3567 13.1092 19.5437 12.3772 20.2762L7.04296 25.61C6.97233 25.6806 6.93309 25.7758 6.93309 25.8752C6.93309 26.0824 7.10103 26.2503 7.30821 26.2503H8.62662C9.66199 26.2503 10.5017 27.09 10.5017 28.1254V28.1259C10.5017 29.1613 9.66199 30.001 8.62662 30.001H1.87506C0.839692 30.001 0 29.1613 0 28.1259V21.3744C0 20.339 0.839692 19.4993 1.87506 19.4993L1.87554 19.4992Z" fill="#7C5FF4"/>
</svg>
