<svg width="30" height="30" viewBox="0 0 30 30" fill="none" xmlns="http://www.w3.org/2000/svg">
<path d="M11.0505 27.168C10.0151 27.168 9.17542 26.3283 9.17542 25.293L9.17542 23.9746C9.17542 23.8746 9.13618 23.7794 9.06555 23.7093C8.91906 23.5628 8.68154 23.5628 8.53506 23.7093L3.20131 29.0436C2.46886 29.7755 1.28179 29.7755 0.549308 29.0436C-0.182608 28.3111 -0.183132 27.1235 0.548785 26.3911L5.88307 21.0573C5.95369 20.9867 5.99293 20.8915 5.99293 20.7921C5.99293 20.5849 5.825 20.4169 5.61782 20.4169L4.29941 20.4169C3.26404 20.4169 2.42434 19.5773 2.42435 18.5419C2.42435 17.5065 3.26404 16.6663 4.29941 16.6663L11.051 16.6663C12.0863 16.6663 12.926 17.506 12.926 18.5414L12.926 25.2929C12.926 26.3283 12.0859 27.168 11.0505 27.168Z" fill="#7C5FF4"/>
<path d="M18.5416 2.42449C19.5769 2.42449 20.4166 3.26419 20.4166 4.29955V5.61796C20.4166 5.71789 20.4559 5.8131 20.5265 5.88322C20.673 6.02971 20.9105 6.02971 21.057 5.88322L26.3907 0.548937C27.1232 -0.182979 28.3103 -0.182979 29.0427 0.548937C29.7746 1.28139 29.7752 2.46899 29.0433 3.20147L23.709 8.53521C23.6383 8.60584 23.5991 8.70106 23.5991 8.80046C23.5991 9.00765 23.767 9.17558 23.9742 9.17558H25.2926C26.328 9.17558 27.1677 10.0153 27.1677 11.0506C27.1677 12.086 26.328 12.9262 25.2926 12.9262L18.5411 12.9262C17.5057 12.9262 16.666 12.0865 16.666 11.0512V4.29961C16.666 3.26424 17.5062 2.42449 18.5416 2.42449Z" fill="#7C5FF4"/>
</svg>
