<svg width="27" height="31" viewBox="0 0 27 31" fill="none" xmlns="http://www.w3.org/2000/svg">
<path d="M23.7663 15.467C23.3806 16.9065 19.1543 25.4089 17.7148 25.0229C16.2752 24.6369 16.8657 15.1617 17.2517 13.7215L20.3919 2.00025C20.7776 0.560714 22.2576 -0.293035 23.6964 0.0926325L24.9992 0.441778C26.4387 0.827445 27.2929 2.3064 26.9075 3.74594L23.7663 15.467Z" fill="#7C5FF4"/>
<path d="M11.7628 30.6404C8.84647 30.6404 7.11468 30.0696 6.35407 28.8703C5.89714 28.1527 5.61066 26.9312 6.83392 25.1916C7.37859 24.417 7.37179 24.059 7.34027 24.0052C7.33669 23.9991 6.94386 23.3804 4.41316 23.2454C2.89808 23.1648 1.5086 23.312 1.49466 23.3137C0.752682 23.3929 0.0884037 22.8579 0.0078233 22.1177C-0.0716744 21.3768 0.463684 20.7114 1.20461 20.6309C1.26978 20.6237 2.82676 20.4593 4.55672 20.5514C7.25144 20.6957 8.9219 21.3768 9.66317 22.6354C10.1348 23.4347 10.4091 24.7962 9.04007 26.7435C8.76756 27.132 8.69057 27.3583 8.66909 27.4561C8.94518 27.6656 10.1086 28.0598 13.0164 27.9087C15.1392 27.7977 17.0868 27.4597 17.1058 27.4561C17.8399 27.3272 18.5386 27.8174 18.6675 28.5515C18.7964 29.2856 18.3061 29.9842 17.5721 30.1131C17.4818 30.1285 15.3368 30.5024 12.9845 30.6113C12.5562 30.6306 12.1487 30.6403 11.7627 30.6403L11.7628 30.6404Z" fill="#7C5FF4"/>
</svg>
