<svg width="32" height="32" viewBox="0 0 32 32" fill="none" xmlns="http://www.w3.org/2000/svg">
<path fill-rule="evenodd" clip-rule="evenodd" d="M3.65548 16.0024C3.65548 9.17468 9.19079 3.63937 16.0185 3.63937C22.8462 3.63937 28.3815 9.17468 28.3815 16.0024C28.3815 22.8301 22.8462 28.3654 16.0185 28.3654C9.19079 28.3654 3.65548 22.8301 3.65548 16.0024ZM16.0185 0.82959C7.63899 0.82959 0.845703 7.62288 0.845703 16.0024C0.845703 24.3819 7.63899 31.1752 16.0185 31.1752C24.398 31.1752 31.1913 24.3819 31.1913 16.0024C31.1913 7.62288 24.398 0.82959 16.0185 0.82959ZM16.0186 10.1933C14.5397 10.1933 13.3388 11.3942 13.3388 12.8731H10.529C10.529 9.84236 12.9879 7.38351 16.0186 7.38351C19.0494 7.38351 21.5082 9.84236 21.5082 12.8731C21.5082 14.866 20.4443 16.6127 18.8595 17.5702L18.8115 17.5992L18.7699 17.62L18.7564 17.6281L18.7288 17.645L18.7216 17.6495L18.7216 17.6494C17.9422 18.1227 17.427 18.9736 17.427 19.9432H14.6173C14.6173 17.9502 15.6808 16.2104 17.2593 15.2501L17.2639 15.2473C17.2971 15.2268 17.3613 15.1873 17.4389 15.1454C18.1962 14.673 18.6985 13.831 18.6985 12.8731C18.6985 11.3942 17.4976 10.1933 16.0186 10.1933ZM17.4235 21.7626V24.3967H14.6137V21.7626H17.4235Z" fill="#7C5FF4"/>
</svg>
