<svg width="32" height="28" viewBox="0 0 32 28" fill="none" xmlns="http://www.w3.org/2000/svg">
<path d="M10.1843 8.61788L6.24415 9.8184C7.99153 5.94229 11.8865 3.27154 16.3713 3.27154C21.1247 3.27154 25.2044 6.29077 26.7782 10.4987L26.7785 10.4995C26.9554 10.9593 27.4138 11.2766 27.9091 11.2766C28.7284 11.2766 29.2891 10.4254 29.0077 9.65152L29.0073 9.65032C27.081 4.5571 22.1511 0.9 16.3713 0.9C11.0765 0.9 6.47546 3.95914 4.30372 8.43501L3.24427 4.89379C3.06605 4.25461 2.39299 3.90397 1.76022 4.07982L1.787 4.17617L1.76022 4.07982C1.12043 4.25764 0.769351 4.93105 0.945293 5.56414L0.945276 5.56414L0.94582 5.56597L2.86283 11.9875L2.8638 11.9908L2.89004 12.08C3.06823 12.6856 3.74083 13.0379 4.34326 12.8607L4.34365 12.8606L10.8571 10.9162C11.4962 10.7379 11.8469 10.0649 11.671 9.43212C11.4932 8.79232 10.8198 8.44124 10.1867 8.61719L10.1867 8.61716L10.1843 8.61788Z" fill="#7C5FF4" stroke="#7C5FF4" stroke-width="0.2"/>
<path d="M29.5308 23.9098L29.5323 23.9151C29.5352 23.9253 29.5382 23.9353 29.5414 23.9453L29.6188 24.204L29.6339 24.1611C29.8976 24.6365 30.471 24.874 31.0146 24.7227C31.6544 24.5448 32.0055 23.8714 31.8295 23.2384L31.8295 23.2384L31.829 23.2365L29.8848 16.7241C29.8848 16.7238 29.8847 16.7235 29.8846 16.7231C29.7064 16.084 29.0333 15.7333 28.4005 15.9092L28.4005 15.9091L28.3987 15.9097L21.8862 17.8538C21.8859 17.8539 21.8856 17.854 21.8853 17.8541C21.2461 18.0323 20.8955 18.7054 21.0713 19.3382C21.2491 19.9779 21.9225 20.329 22.5556 20.1531L22.5556 20.1531L22.558 20.1524L26.4982 18.9519C24.7508 22.828 20.8558 25.4987 16.3711 25.4987C11.6178 25.4987 7.53815 22.4797 5.96413 18.2716L5.96413 18.2716L5.9638 18.2707C5.78692 17.8109 5.32857 17.4936 4.83325 17.4936C4.01397 17.4936 3.4532 18.3449 3.73464 19.1187L3.73464 19.1187L3.73509 19.1199C5.66135 24.2132 10.5913 27.8703 16.371 27.8703C21.6667 27.8703 26.2681 24.81 28.4701 20.3646L29.5308 23.9098Z" fill="#7C5FF4" stroke="#7C5FF4" stroke-width="0.2"/>
</svg>
