<svg width="30" height="30" viewBox="0 0 30 30" fill="none" xmlns="http://www.w3.org/2000/svg">
<path d="M15 0C11.0219 0 7.20621 1.58044 4.39341 4.39341C1.58044 7.20662 0 11.0219 0 15C0 18.9781 1.58044 22.7938 4.39341 25.6066C7.20662 28.4196 11.0219 30 15 30C18.9781 30 22.7938 28.4196 25.6066 25.6066C28.4196 22.7934 30 18.9781 30 15C29.9952 11.0232 28.4134 7.2103 25.6013 4.39867C22.7893 1.58663 18.9764 0.00479222 15 0ZM15 27.273C11.7451 27.273 8.62342 25.98 6.32199 23.6784C4.02038 21.3767 2.72736 18.2551 2.72736 15.0003C2.72736 11.7456 4.02038 8.62378 6.32199 6.32234C8.6236 4.02073 11.7452 2.72771 15 2.72771C18.2548 2.72771 21.3766 4.02073 23.678 6.32234C25.9796 8.62395 27.2726 11.7456 27.2726 15.0003C27.2688 18.2542 25.9744 21.3734 23.6737 23.6743C21.373 25.9749 18.2537 27.2694 14.9998 27.2732L15 27.273Z" fill="#7C5FF4"/>
<path d="M16.3631 14.4353V6.81797C16.3631 6.3308 16.1033 5.88062 15.6814 5.63703C15.2596 5.39345 14.7395 5.39345 14.3177 5.63703C13.8958 5.88062 13.636 6.3308 13.636 6.81797V14.9998C13.636 15.3614 13.7798 15.7082 14.0355 15.9639L18.1264 20.0548C18.4727 20.3895 18.97 20.5164 19.4343 20.389C19.8986 20.2618 20.2616 19.8989 20.3887 19.4345C20.5161 18.9702 20.3892 18.473 20.0545 18.1267L16.3631 14.4353Z" fill="#7C5FF4"/>
</svg>
