<svg width="33" height="38" viewBox="0 0 33 38" fill="none" xmlns="http://www.w3.org/2000/svg">
<path d="M16.5006 20.281C17.1175 20.281 17.6572 19.7798 17.6572 19.1244V13.9201C17.6572 13.3032 17.156 12.7634 16.5006 12.7634C15.8837 12.7634 15.344 13.2647 15.344 13.9201V19.1247C15.344 19.7798 15.8837 20.281 16.5006 20.281Z" fill="#7C5FF4"/>
<path d="M17.734 22.5558C17.734 23.2372 17.1816 23.7896 16.5002 23.7896C15.8187 23.7896 15.2664 23.2372 15.2664 22.5558C15.2664 21.8746 15.8187 21.3223 16.5002 21.3223C17.1816 21.3223 17.734 21.8746 17.734 22.5558Z" fill="#7C5FF4"/>
<path d="M16.963 7.3284C14.1873 7.21277 11.5272 8.17654 9.52253 10.1041C7.51777 12.0317 6.3999 14.6147 6.3999 17.3904C6.3999 19.6649 7.13246 21.8238 8.55874 23.6358C9.79254 25.2165 10.6404 26.72 11.1801 28.3007L11.2186 28.4163V32.4643C11.2186 32.9656 11.6042 33.4281 12.1052 33.5053C12.2983 35.7411 14.1871 37.5146 16.5004 37.5146C18.8136 37.5146 20.7025 35.741 20.8953 33.4665C21.3966 33.3894 21.7819 32.9653 21.7819 32.4256V28.4163L21.8204 28.3007C22.3601 26.72 23.2083 25.2165 24.4418 23.6745C25.9453 21.7854 26.7163 19.3953 26.6006 17.0051C26.3312 11.8005 22.1291 7.55992 16.9626 7.32861L16.963 7.3284ZM16.5005 35.3942C15.3439 35.3942 14.4188 34.546 14.226 33.4666H18.775C18.5822 34.5847 17.6571 35.3942 16.5005 35.3942ZM19.6619 31.3849H13.3391V28.8404H19.6616L19.6619 31.3849ZM22.7458 22.3252C21.5892 23.7903 20.7411 25.2166 20.1245 26.7201H12.8767C12.2598 25.2551 11.4117 23.7903 10.2553 22.3252C9.13744 20.8989 8.55896 19.2026 8.55896 17.3906C8.55896 15.193 9.44558 13.1497 11.0263 11.6078C12.607 10.1043 14.6886 9.29455 16.9247 9.4102C21.0111 9.60302 24.3267 12.957 24.5194 17.0049C24.5579 18.9712 23.941 20.8216 22.7459 22.3251L22.7458 22.3252Z" fill="#7C5FF4"/>
<path d="M16.5 4.93766C17.0781 4.93766 17.5409 4.47512 17.5409 3.89669V1.93062C17.5409 1.35245 17.0784 0.889648 16.5 0.889648C15.9218 0.889648 15.459 1.35219 15.459 1.93062V3.89669C15.459 4.47486 15.9218 4.93766 16.5 4.93766Z" fill="#7C5FF4"/>
<path d="M8.82792 6.24841C9.02074 6.59531 9.36764 6.78812 9.75324 6.78812C9.94605 6.78812 10.1001 6.74967 10.2929 6.63403C10.7942 6.32558 10.9867 5.70872 10.6786 5.20768L9.71478 3.51133C9.40633 3.01007 8.78947 2.81754 8.28843 3.1257C7.78717 3.43415 7.59463 4.05102 7.9028 4.55205L8.82792 6.24841Z" fill="#7C5FF4"/>
<path d="M5.32055 9.71829L3.6242 8.75449C3.12294 8.44604 2.46758 8.63886 2.19785 9.14012C1.8894 9.64138 2.08222 10.2967 2.58348 10.5665L4.27983 11.5303C4.43392 11.6074 4.62674 11.6844 4.81954 11.6844C5.16645 11.6844 5.5521 11.4915 5.74486 11.1446C6.01431 10.6821 5.8215 10.0268 5.3205 9.71829L5.32055 9.71829Z" fill="#7C5FF4"/>
<path d="M4.04801 17.3896C4.04801 16.8114 3.58547 16.3486 3.00704 16.3486H1.04097C0.462801 16.3486 0 16.8112 0 17.3896C0 17.9678 0.46254 18.4306 1.04097 18.4306H3.00704C3.58521 18.469 4.04801 17.9678 4.04801 17.3896Z" fill="#7C5FF4"/>
<path d="M4.2797 23.2496L2.58335 24.2134C2.0821 24.5219 1.88956 25.1387 2.19772 25.6398C2.39054 25.9867 2.73744 26.1795 3.12304 26.1795C3.31585 26.1795 3.46994 26.141 3.66275 26.0254L5.3591 25.0616C5.86036 24.7531 6.0529 24.1363 5.74473 23.6352C5.43628 23.134 4.78093 22.9412 4.27969 23.2496L4.2797 23.2496Z" fill="#7C5FF4"/>
<path d="M30.4175 24.2134L28.7211 23.2496C28.2199 22.9412 27.5645 23.134 27.2948 23.6352C26.9863 24.1365 27.1791 24.7919 27.6804 25.0616L29.3768 26.0254C29.5308 26.1026 29.7237 26.1795 29.9165 26.1795C30.2634 26.1795 30.649 25.9867 30.8418 25.6398C31.0728 25.1385 30.9187 24.5219 30.4174 24.2134L30.4175 24.2134Z" fill="#7C5FF4"/>
<path d="M31.9589 16.3486H29.9929C29.4147 16.3486 28.9519 16.8112 28.9519 17.3896C28.9519 17.9678 29.4144 18.4306 29.9929 18.4306H31.9589C32.5371 18.4306 32.9999 17.968 32.9999 17.3896C32.9999 16.8114 32.5374 16.3486 31.9589 16.3486Z" fill="#7C5FF4"/>
<path d="M28.1816 11.6842C28.3744 11.6842 28.5285 11.6458 28.7213 11.5301L30.4176 10.5663C30.9189 10.2579 31.1114 9.64103 30.8033 9.13999C30.4948 8.63874 29.8779 8.4462 29.3769 8.75436L27.6803 9.71789C27.179 10.0263 26.9865 10.6432 27.2946 11.1442C27.4877 11.5299 27.8346 11.6842 28.1815 11.6842L28.1816 11.6842Z" fill="#7C5FF4"/>
<path d="M22.7072 6.63415C22.8613 6.71133 23.0541 6.78824 23.2469 6.78824C23.5938 6.78824 23.9795 6.59543 24.1722 6.24853L25.136 4.55218C25.4445 4.05092 25.2517 3.39555 24.7504 3.12583C24.2491 2.81738 23.5938 3.01019 23.3241 3.51146L22.3603 5.20781C22.0518 5.67035 22.2059 6.32568 22.7072 6.63416L22.7072 6.63415Z" fill="#7C5FF4"/>
</svg>
