<?xml version="1.0" encoding="utf-8"?>
<!-- Generator: Adobe Illustrator 16.0.0, SVG Export Plug-In . SVG Version: 6.00 Build 0)  -->
<!DOCTYPE svg PUBLIC "-//W3C//DTD SVG 1.1//EN" "http://www.w3.org/Graphics/SVG/1.1/DTD/svg11.dtd">
<svg version="1.1" xmlns="http://www.w3.org/2000/svg" xmlns:xlink="http://www.w3.org/1999/xlink" x="0px" y="0px" width="98.35px"
	 height="98.3px" viewBox="0 0 98.35 98.3" enable-background="new 0 0 98.35 98.3" xml:space="preserve">
<g id="Layer_2">
	<path fill="#FFFFFF" d="M49.2,98.3c-6.67,0-13.109-1.288-19.138-3.829c-1.504-0.634-3.015-1.379-4.492-2.215
		c-0.128-0.054-0.389-0.179-1.038-0.522c-0.699-0.394-0.952-0.555-1.089-0.652c-3.273-1.996-6.318-4.393-9.05-7.125
		c-4.539-4.539-8.077-9.794-10.516-15.621C1.476,62.655,0.188,56.667,0.05,50.541C0.017,50.075,0,49.62,0,49.2
		c0-0.465,0.017-0.883,0.05-1.299c0.106-6.225,1.395-12.246,3.831-17.897c2.435-5.85,5.974-11.107,10.514-15.614
		c4.501-4.535,9.775-8.074,15.672-10.514C36.088,1.306,42.529,0,49.2,0c6.637,0,13.077,1.305,19.141,3.88
		c1.637,0.667,3.242,1.452,4.761,2.326c0.267,0.118,0.52,0.256,0.753,0.412c0.298,0.178,0.651,0.396,1.022,0.632
		c3.25,1.965,6.305,4.368,9.08,7.143c4.505,4.505,8.043,9.76,10.515,15.619c2.403,5.654,3.708,11.681,3.878,17.911h-0.001
		L98.35,50.4c0,0.009-0.001,0.018-0.001,0.027h0.001c-0.169,6.162-1.474,12.188-3.877,17.91c-2.473,5.827-6.01,11.08-10.513,15.617
		c-2.776,2.742-5.822,5.139-9.063,7.133c-0.345,0.241-0.726,0.477-1.117,0.69c-0.219,0.11-0.419,0.218-0.635,0.341l-0.643,0.424
		c-1.352,0.709-2.757,1.36-4.177,1.934C62.274,97.012,55.836,98.3,49.2,98.3z M38.375,95.072c7.002,1.628,14.571,1.637,21.616,0.002
		c-1.784-0.079-3.555-0.348-5.296-0.808c-1.958-0.537-3.804-1.282-5.503-2.221c-1.753,0.938-3.627,1.684-5.577,2.218
		C41.88,94.722,40.129,94.992,38.375,95.072z M49.209,89.747l0.496,0.29c1.683,0.984,3.536,1.757,5.509,2.298
		c2.883,0.761,5.867,0.956,8.859,0.573c2.635-0.286,5.145-1,7.479-2.128l0.542-0.362c0.312-0.18,0.545-0.306,0.76-0.414
		c0.297-0.163,0.619-0.362,0.922-0.575c2.246-1.508,4.219-3.368,5.878-5.538c1.778-2.349,3.084-5.011,3.88-7.907
		c0.472-1.95,0.714-3.958,0.714-5.936v-0.575l0.498-0.289c1.757-1.022,3.409-2.269,4.912-3.708c2.047-2.08,3.693-4.55,4.871-7.319
		c1.049-2.509,1.663-5.142,1.823-7.818l-0.002-2.377c0-0.009,0-0.017,0-0.025c-0.159-2.646-0.773-5.292-1.823-7.803
		c-1.174-2.729-2.82-5.183-4.889-7.284c-1.483-1.452-3.129-2.695-4.879-3.681l-0.509-0.287V28.3c0-2.043-0.243-4.065-0.721-6.011
		c-0.79-2.873-2.097-5.554-3.88-7.94c-1.647-2.122-3.618-3.948-5.848-5.413c-0.347-0.221-0.689-0.433-1.016-0.629
		c-0.188-0.124-0.353-0.212-0.529-0.288l0.325-0.758l-0.4,0.722c-2.519-1.339-5.252-2.228-8.124-2.643
		c-2.962-0.347-5.948-0.121-8.842,0.675c-1.973,0.541-3.827,1.314-5.51,2.299l-0.496,0.29l-0.5-0.282
		c-1.754-0.989-3.646-1.765-5.623-2.307c-2.895-0.794-5.843-1.02-8.768-0.671c-3.071,0.443-6.016,1.447-8.727,2.978
		c-2.731,1.556-5.052,3.586-6.893,6.031c-1.78,2.384-3.105,5.064-3.935,7.963C14.257,24.252,14,26.266,14,28.3v0.579l-0.502,0.288
		c-1.709,0.981-3.282,2.217-4.675,3.674c-2.154,2.122-3.849,4.575-5.058,7.313c-1.007,2.487-1.588,5.136-1.716,7.843l-0.7-0.022
		l0.698,0.058C2.016,48.405,2,48.778,2,49.15c0,0.428,0.016,0.838,0.047,1.279c0.128,2.694,0.709,5.29,1.726,7.737
		c1.202,2.752,2.896,5.222,5.028,7.322c1.412,1.444,2.991,2.685,4.708,3.702L14,69.48v0.57c0,1.973,0.258,3.975,0.768,5.95
		c0.822,2.875,2.146,5.54,3.929,7.896c1.626,2.168,3.596,4.024,5.854,5.52c0.083,0.06,0.243,0.171,0.939,0.563
		c0.446,0.235,0.737,0.385,0.854,0.433l0.125,0.056c2.443,1.3,5.082,2.121,7.844,2.439c2.94,0.382,5.89,0.19,8.781-0.574
		c1.969-0.54,3.861-1.316,5.614-2.304L49.209,89.747z M86.243,70.622c-0.042,1.951-0.301,3.92-0.771,5.864
		c-0.491,1.787-1.155,3.484-1.988,5.083c3.873-4.123,6.948-8.831,9.146-14.008c0.66-1.571,1.233-3.167,1.72-4.782
		c-0.951,1.488-2.049,2.866-3.287,4.124C89.568,68.334,87.954,69.578,86.243,70.622z M3.988,62.753
		c0.487,1.624,1.065,3.228,1.732,4.808c2.165,5.172,5.233,9.875,9.13,13.998c-0.835-1.589-1.509-3.272-2.012-5.034
		c-0.509-1.973-0.787-3.951-0.832-5.909c-1.681-1.048-3.233-2.297-4.622-3.717C6.106,65.64,4.97,64.253,3.988,62.753z
		 M14.783,16.856c-3.867,4.083-6.91,8.761-9.06,13.929c-0.685,1.589-1.276,3.208-1.771,4.853c0.994-1.516,2.145-2.918,3.446-4.2
		c1.371-1.434,2.924-2.687,4.608-3.712c0.044-2.014,0.322-4.006,0.826-5.93l0.006-0.021C13.328,20.061,13.979,18.417,14.783,16.856z
		 M86.244,27.721c1.714,1.021,3.329,2.269,4.806,3.715c1.252,1.271,2.359,2.656,3.314,4.144c-0.49-1.623-1.068-3.221-1.734-4.788
		c-2.185-5.177-5.235-9.861-9.078-13.944c0.8,1.568,1.439,3.218,1.912,4.938C85.941,23.727,86.202,25.714,86.244,27.721z
		 M38.446,3.228c1.734,0.103,3.461,0.389,5.169,0.858c1.948,0.534,3.822,1.28,5.576,2.219c1.699-0.939,3.545-1.685,5.494-2.219
		c1.719-0.473,3.467-0.76,5.23-0.861C52.912,1.59,45.402,1.6,38.446,3.228z M49.2,74.25c-3.386,0-6.68-0.666-9.789-1.978
		c-0.931-0.415-1.858-0.861-2.771-1.334c-1.916-1.133-3.634-2.482-5.155-4.038c-2.301-2.267-4.139-4.946-5.452-7.949
		c-1.285-3.091-1.933-6.383-1.933-9.8c0-3.382,0.647-6.673,1.925-9.78c1.321-2.99,3.157-5.648,5.466-7.925
		c1.52-1.554,3.236-2.901,5.099-4.005c0.939-0.556,1.892-1.033,2.832-1.416c3.098-1.308,6.392-1.974,9.777-1.974
		c3.42,0,6.715,0.666,9.793,1.98c0.938,0.382,1.866,0.865,2.746,1.428c1.828,1.082,3.588,2.424,5.202,3.97
		c2.265,2.299,4.051,4.958,5.328,7.927c1.348,3.11,2.032,6.407,2.032,9.795c0,3.423-0.685,6.721-2.034,9.801
		c-1.272,2.992-3.059,5.671-5.304,7.951c-1.634,1.566-3.395,2.908-5.252,4.008c-0.874,0.49-1.776,0.942-2.703,1.354
		C55.916,73.584,52.621,74.25,49.2,74.25z M39.152,69.953c0.35,0.166,0.703,0.328,1.054,0.484c2.844,1.2,5.875,1.813,8.993,1.813
		c3.15,0,6.18-0.612,9.008-1.819c0.673-0.3,1.341-0.626,1.985-0.97c-0.045-1.842-0.3-3.676-0.761-5.461
		c-0.791-2.847-2.099-5.512-3.883-7.902c-1.535-2.046-3.354-3.781-5.42-5.171c-0.214,2.801-0.871,5.488-1.96,8.019
		c-1.24,2.996-3.028,5.679-5.312,7.962C41.729,68.036,40.487,69.056,39.152,69.953z M26.16,50.872
		c0.178,2.536,0.752,4.983,1.713,7.294c1.203,2.752,2.897,5.222,5.028,7.322c1.274,1.303,2.684,2.44,4.208,3.396
		c1.584-0.958,3.04-2.097,4.333-3.391c2.096-2.096,3.739-4.561,4.883-7.326c0.996-2.316,1.6-4.766,1.802-7.309
		c-2.535,1.207-5.169,1.981-7.9,2.333c-3.217,0.416-6.46,0.188-9.64-0.677C29.08,52.138,27.594,51.586,26.16,50.872z M51.228,49.254
		c2.242,1.502,4.24,3.402,5.922,5.646c1.935,2.591,3.352,5.478,4.213,8.583c0.407,1.574,0.666,3.174,0.775,4.782
		c1.192-0.819,2.34-1.753,3.419-2.787c2.047-2.08,3.694-4.549,4.872-7.319c1.165-2.659,1.79-5.485,1.863-8.42
		c-1.61-0.859-3.331-1.558-5.122-2.078c-2.859-0.691-5.854-0.869-8.855-0.517C55.831,47.438,53.452,48.146,51.228,49.254z
		 M26.107,48.579c1.593,0.899,3.268,1.571,4.986,2c2.945,0.801,5.925,1.01,8.879,0.629c2.495-0.322,4.903-1.025,7.179-2.094
		c-2.28-1.557-4.292-3.453-5.992-5.652c-1.947-2.641-3.347-5.564-4.176-8.707c-0.423-1.542-0.696-3.106-0.814-4.666
		c-1.166,0.815-2.255,1.739-3.254,2.76l-0.013,0.013c-2.132,2.101-3.827,4.554-5.037,7.292
		C26.769,42.822,26.175,45.66,26.107,48.579z M61.193,29.467c-1.521,0.931-2.942,2.067-4.229,3.383
		c-2.177,2.114-3.851,4.559-4.992,7.286c-0.966,2.361-1.542,4.835-1.717,7.369c2.453-1.234,5.08-2.022,7.827-2.348
		c3.24-0.38,6.47-0.187,9.603,0.571c1.593,0.462,3.112,1.043,4.554,1.74c-0.186-2.522-0.792-4.978-1.806-7.32
		c-1.18-2.741-2.826-5.195-4.896-7.295C64.198,31.571,62.734,30.429,61.193,29.467z M38.108,28.875
		c0.048,1.781,0.318,3.582,0.806,5.361c0.767,2.907,2.058,5.602,3.841,8.021c1.541,1.992,3.371,3.723,5.445,5.151v-0.125
		l0.064,0.042c0.193-2.736,0.817-5.403,1.861-7.954c1.249-2.986,3.074-5.654,5.428-7.939c1.132-1.158,2.373-2.196,3.695-3.091
		c-0.339-0.169-0.681-0.324-1.026-0.465c-2.843-1.213-5.874-1.826-9.023-1.826c-3.117,0-6.149,0.613-9.011,1.821
		C39.495,28.154,38.799,28.49,38.108,28.875z"/>
</g>
<g id="Layer_1">
	<path fill="#515594" d="M49.278,92.62l-0.74-0.399c-0.943-0.508-1.877-1.13-2.775-1.849c-2.713-1.982-4.96-4.534-6.625-7.545
		c-1.709-3-2.83-6.239-3.322-9.61c-0.027-0.26-0.051-0.519-0.071-0.776c-0.215,0.098-0.433,0.194-0.653,0.289
		c-3.142,1.341-6.486,2.021-9.941,2.021c-3.454,0-6.813-0.679-9.983-2.018c-0.952-0.423-1.887-0.874-2.808-1.351l-0.809-0.42V70.05
		c0-1.079,0.053-2.125,0.158-3.108c0.463-3.458,1.588-6.708,3.349-9.702c1.68-3.011,3.924-5.577,6.651-7.594
		c0.21-0.16,0.423-0.317,0.639-0.472c-0.22-0.155-0.438-0.314-0.655-0.479c-2.713-2.043-4.951-4.585-6.645-7.55
		c-1.751-2.977-2.876-6.227-3.335-9.645l-0.006-0.055c-0.104-1.08-0.157-2.137-0.157-3.144v-0.855l0.735-0.436
		c0.959-0.568,1.935-1.056,2.899-1.449c3.154-1.332,6.513-2.011,9.966-2.011c3.455,0,6.799,0.68,9.939,2.021
		c0.219,0.086,0.438,0.178,0.657,0.274c0.018-0.232,0.039-0.463,0.062-0.694c0.501-3.41,1.623-6.616,3.343-9.6
		c1.645-3.011,3.886-5.61,6.645-7.697c0.918-0.627,1.808-1.186,2.705-1.703l0.78-0.45l0.764,0.477c0.817,0.51,1.65,1.054,2.5,1.632
		c2.812,2.124,5.083,4.716,6.81,7.748c1.722,2.987,2.811,6.204,3.235,9.555c0.025,0.252,0.047,0.504,0.067,0.754
		c0.247-0.11,0.496-0.214,0.746-0.313c3.137-1.325,6.496-2.004,9.949-2.004c3.457,0,6.786,0.681,9.895,2.023
		c1.002,0.378,1.995,0.885,2.887,1.479l0.668,0.445V28.3c0,0.984-0.035,2.026-0.104,3.096l-0.01,0.103
		c-0.457,3.408-1.544,6.651-3.23,9.638c-1.777,2.986-4.043,5.519-6.753,7.561c-0.215,0.163-0.43,0.322-0.644,0.476
		c0.216,0.157,0.433,0.318,0.649,0.482c2.703,2,4.975,4.558,6.739,7.59c1.696,3.004,2.783,6.247,3.24,9.655
		c0.079,1.065,0.114,2.093,0.114,3.148v0.862l-0.745,0.434c-0.857,0.5-1.81,0.967-2.832,1.391c-3.087,1.333-6.416,2.014-9.874,2.014
		c-3.454,0-6.813-0.679-9.984-2.018c-0.238-0.102-0.475-0.207-0.71-0.313c-0.018,0.24-0.039,0.481-0.063,0.725
		c-0.428,3.424-1.516,6.673-3.24,9.699c-1.735,3.009-4.011,5.553-6.769,7.568c-0.833,0.669-1.719,1.283-2.58,1.785L49.278,92.62z
		 M38.65,70.05c0,0.945,0.048,1.886,0.142,2.796c0.43,2.937,1.429,5.822,2.961,8.512c1.462,2.644,3.421,4.869,5.832,6.631
		c0.556,0.443,1.099,0.829,1.638,1.163c0.505-0.332,1.02-0.708,1.539-1.123c2.47-1.807,4.467-4.041,5.989-6.678
		c1.523-2.674,2.487-5.549,2.861-8.537c0.062-0.65,0.104-1.302,0.124-1.935c-1.615-1.032-3.124-2.247-4.496-3.619
		c-2.388-2.318-4.252-5.061-5.526-8.137c-0.964-2.325-1.581-4.77-1.839-7.29c-1.761,1.272-3.331,2.805-4.683,4.577
		c-1.734,2.322-2.997,4.926-3.743,7.726C38.918,66.074,38.65,68.06,38.65,70.05z M61.988,68.744
		c0.819,0.439,1.677,0.853,2.553,1.229c2.792,1.179,5.758,1.778,8.809,1.778c3.046,0,5.975-0.598,8.705-1.776
		c0.619-0.256,1.198-0.525,1.736-0.805c-0.014-0.674-0.043-1.331-0.088-1.961c-0.396-2.935-1.362-5.816-2.86-8.47
		c-1.547-2.66-3.548-4.914-5.936-6.681c-0.546-0.415-1.083-0.799-1.606-1.15c-1.722,0.937-3.55,1.643-5.449,2.102
		c-3.166,0.872-6.476,1.105-9.792,0.68c-2.509-0.324-4.917-0.996-7.186-2.003c0.236,2.159,0.776,4.276,1.612,6.291
		c1.116,2.697,2.75,5.102,4.859,7.149C58.758,66.537,60.315,67.75,61.988,68.744z M14.564,69.136c0.598,0.296,1.2,0.579,1.796,0.844
		c2.773,1.171,5.739,1.77,8.79,1.77c3.048,0,5.996-0.599,8.761-1.779c0.604-0.259,1.192-0.536,1.755-0.827
		c0.07-1.954,0.368-3.898,0.887-5.792c0.843-3.161,2.272-6.108,4.245-8.75c1.56-2.043,3.368-3.803,5.4-5.259
		c-1.989-0.878-4.075-1.45-6.225-1.704c-2.909-0.343-5.844-0.17-8.725,0.519c-1.8,0.542-3.63,1.322-5.355,2.294
		c-0.808,0.467-1.611,1.002-2.385,1.591c-2.398,1.774-4.36,4.02-5.848,6.687c-1.574,2.676-2.569,5.549-2.974,8.569
		C14.625,67.872,14.584,68.491,14.564,69.136z M52.271,49.022c1.952,0.846,4.019,1.413,6.17,1.69c2.92,0.373,5.833,0.168,8.66-0.609
		c1.797-0.436,3.488-1.105,5.068-2.001l0.424-0.248c0.741-0.433,1.515-0.954,2.299-1.55c2.402-1.809,4.408-4.053,5.968-6.672
		c1.473-2.608,2.435-5.472,2.845-8.481c0.044-0.69,0.072-1.366,0.085-2.019c-0.522-0.295-1.083-0.557-1.673-0.781
		c-2.794-1.205-5.723-1.802-8.768-1.802c-3.05,0-6.017,0.6-8.817,1.782c-0.624,0.246-1.222,0.525-1.799,0.84
		c-0.065,1.899-0.345,3.813-0.832,5.703c-0.884,3.218-2.327,6.193-4.295,8.865C56.068,45.766,54.281,47.533,52.271,49.022z
		 M14.69,31.128c0.407,3.01,1.401,5.873,2.953,8.511c1.5,2.625,3.468,4.861,5.859,6.662c0.547,0.416,1.104,0.794,1.664,1.132
		c1.697-0.894,3.477-1.623,5.303-2.17c3.308-0.793,6.598-0.988,9.857-0.603c2.521,0.298,4.963,0.979,7.286,2.029
		c-0.257-2.153-0.826-4.296-1.695-6.357c-1.12-2.676-2.727-5.071-4.778-7.122c-0.782-0.799-1.62-1.528-2.508-2.183l-2.289-1.464
		c-0.749-0.479-1.553-0.889-2.391-1.218c-2.806-1.197-5.753-1.796-8.801-1.796c-3.05,0-6.016,0.6-8.816,1.782
		c-0.592,0.241-1.183,0.521-1.77,0.835C14.584,29.805,14.626,30.461,14.69,31.128z M38.663,27.443
		c1.68,1.018,3.228,2.245,4.609,3.658c2.317,2.316,4.142,5.035,5.412,8.069c0.997,2.365,1.643,4.83,1.926,7.348
		c1.731-1.3,3.271-2.833,4.596-4.577c1.736-2.356,3.018-5,3.798-7.839c0.493-1.912,0.746-3.872,0.746-5.803
		c0-0.946-0.048-1.905-0.142-2.851c-0.369-2.914-1.332-5.753-2.857-8.4c-1.529-2.683-3.531-4.969-5.956-6.803
		c-0.51-0.345-1.04-0.695-1.572-1.037c-0.569,0.346-1.131,0.708-1.68,1.081c-2.356,1.785-4.321,4.064-5.777,6.729
		c-1.548,2.685-2.545,5.535-2.982,8.5C38.724,26.13,38.682,26.783,38.663,27.443z"/>
</g>
</svg>
