<?xml version="1.0" encoding="utf-8"?>
<!-- Generator: Adobe Illustrator 16.0.0, SVG Export Plug-In . SVG Version: 6.00 Build 0)  -->
<!DOCTYPE svg PUBLIC "-//W3C//DTD SVG 1.1//EN" "http://www.w3.org/Graphics/SVG/1.1/DTD/svg11.dtd">
<svg version="1.1" id="Layer_1" xmlns="http://www.w3.org/2000/svg" xmlns:xlink="http://www.w3.org/1999/xlink" x="0px" y="0px"
	 width="75.25px" height="86.919px" viewBox="0 0 75.25 86.919" enable-background="new 0 0 75.25 86.919" xml:space="preserve">
<path fill="#FFFFFF" d="M37.728,86.919l-0.74-0.399c-0.943-0.508-1.877-1.131-2.775-1.85c-2.713-1.981-4.96-4.533-6.625-7.545
	c-1.709-3-2.83-6.238-3.322-9.609c-0.027-0.261-0.051-0.52-0.071-0.776c-0.215,0.098-0.433,0.194-0.653,0.289
	c-3.142,1.341-6.486,2.021-9.941,2.021c-3.454,0-6.813-0.679-9.983-2.018c-0.952-0.423-1.887-0.874-2.808-1.352L0,65.261v-0.912
	c0-1.079,0.053-2.125,0.158-3.108c0.463-3.458,1.588-6.709,3.349-9.702c1.68-3.012,3.924-5.576,6.651-7.594
	c0.21-0.16,0.423-0.317,0.639-0.472c-0.22-0.155-0.438-0.314-0.655-0.479c-2.713-2.043-4.951-4.585-6.645-7.55
	c-1.751-2.977-2.876-6.227-3.335-9.645l-0.006-0.055C0.053,24.664,0,23.606,0,22.6v-0.855l0.735-0.436
	c0.959-0.568,1.935-1.056,2.899-1.449c3.154-1.332,6.513-2.011,9.966-2.011c3.455,0,6.799,0.68,9.939,2.021
	c0.219,0.086,0.438,0.178,0.657,0.274c0.018-0.232,0.039-0.463,0.062-0.694c0.501-3.41,1.623-6.616,3.343-9.6
	c1.645-3.011,3.886-5.61,6.645-7.697c0.918-0.627,1.808-1.186,2.705-1.703L37.73,0l0.765,0.477c0.816,0.51,1.649,1.054,2.499,1.632
	c2.812,2.124,5.082,4.716,6.81,7.748c1.722,2.987,2.812,6.204,3.235,9.555c0.025,0.252,0.048,0.504,0.066,0.754
	c0.247-0.11,0.496-0.214,0.746-0.313c3.137-1.325,6.496-2.004,9.949-2.004c3.457,0,6.786,0.681,9.895,2.023
	c1.003,0.378,1.995,0.885,2.887,1.479l0.669,0.445V22.6c0,0.984-0.035,2.026-0.104,3.096l-0.011,0.103
	c-0.457,3.408-1.544,6.651-3.229,9.638c-1.777,2.986-4.044,5.519-6.754,7.561c-0.215,0.163-0.43,0.322-0.644,0.476
	c0.216,0.157,0.432,0.318,0.648,0.482c2.703,2,4.976,4.558,6.739,7.59c1.696,3.004,2.782,6.247,3.239,9.655
	c0.079,1.065,0.114,2.094,0.114,3.148v0.862l-0.744,0.434c-0.857,0.499-1.81,0.968-2.832,1.391
	c-3.088,1.333-6.417,2.014-9.874,2.014c-3.454,0-6.813-0.679-9.983-2.018c-0.239-0.103-0.476-0.207-0.711-0.313
	c-0.019,0.239-0.039,0.481-0.063,0.725c-0.428,3.424-1.517,6.673-3.239,9.699c-1.735,3.01-4.012,5.554-6.77,7.568
	c-0.833,0.669-1.719,1.283-2.579,1.785L37.728,86.919z M27.1,64.349c0,0.945,0.048,1.886,0.142,2.796
	c0.43,2.938,1.429,5.822,2.961,8.513c1.462,2.643,3.421,4.868,5.832,6.631c0.556,0.443,1.099,0.828,1.638,1.163
	c0.505-0.332,1.021-0.708,1.539-1.123c2.471-1.807,4.468-4.04,5.988-6.678c1.523-2.675,2.487-5.55,2.861-8.538
	c0.063-0.649,0.104-1.302,0.124-1.935c-1.614-1.031-3.124-2.246-4.496-3.618c-2.388-2.317-4.253-5.061-5.525-8.138
	c-0.965-2.324-1.581-4.77-1.839-7.289c-1.761,1.271-3.331,2.805-4.683,4.576c-1.734,2.322-2.997,4.926-3.743,7.727
	C27.368,60.373,27.1,62.359,27.1,64.349z M50.438,63.043c0.818,0.439,1.678,0.853,2.553,1.228c2.792,1.179,5.759,1.778,8.81,1.778
	c3.046,0,5.975-0.598,8.705-1.776c0.619-0.257,1.198-0.525,1.736-0.805c-0.014-0.675-0.043-1.331-0.088-1.962
	c-0.396-2.935-1.362-5.815-2.86-8.47c-1.547-2.66-3.547-4.913-5.936-6.681c-0.546-0.415-1.082-0.799-1.606-1.15
	c-1.722,0.937-3.55,1.643-5.449,2.102c-3.166,0.872-6.477,1.103-9.793,0.681c-2.508-0.324-4.916-0.996-7.186-2.004
	c0.236,2.158,0.776,4.276,1.612,6.29c1.116,2.697,2.751,5.103,4.859,7.149C47.208,60.836,48.765,62.049,50.438,63.043z
	 M3.014,63.435c0.598,0.296,1.2,0.579,1.796,0.845c2.773,1.17,5.739,1.77,8.79,1.77c3.048,0,5.996-0.599,8.761-1.779
	c0.604-0.259,1.192-0.536,1.755-0.826c0.07-1.954,0.368-3.898,0.887-5.791c0.843-3.161,2.272-6.108,4.245-8.751
	c1.56-2.043,3.368-3.804,5.4-5.259c-1.989-0.878-4.075-1.45-6.225-1.704c-2.908-0.342-5.844-0.17-8.725,0.519
	c-1.8,0.542-3.63,1.322-5.355,2.294c-0.808,0.467-1.611,1.002-2.385,1.591c-2.398,1.775-4.36,4.021-5.848,6.688
	c-1.574,2.676-2.569,5.549-2.974,8.568C3.076,62.171,3.034,62.791,3.014,63.435z M40.722,43.321c1.952,0.846,4.019,1.413,6.17,1.691
	c2.919,0.372,5.834,0.169,8.66-0.609c1.797-0.436,3.488-1.105,5.067-2.001l0.425-0.248c0.741-0.433,1.515-0.954,2.299-1.55
	c2.402-1.809,4.408-4.053,5.968-6.672c1.473-2.608,2.436-5.472,2.846-8.481c0.043-0.69,0.072-1.366,0.085-2.019
	c-0.522-0.295-1.083-0.557-1.674-0.781c-2.793-1.205-5.723-1.802-8.768-1.802c-3.05,0-6.017,0.6-8.817,1.782
	c-0.623,0.246-1.222,0.525-1.798,0.84c-0.066,1.899-0.345,3.813-0.833,5.703c-0.883,3.218-2.326,6.193-4.294,8.865
	C44.518,40.065,42.731,41.832,40.722,43.321z M3.14,25.428c0.407,3.01,1.401,5.873,2.953,8.511c1.5,2.625,3.468,4.861,5.859,6.662
	c0.547,0.416,1.104,0.794,1.664,1.132c1.697-0.894,3.477-1.623,5.303-2.17c3.308-0.792,6.597-0.988,9.857-0.603
	c2.521,0.298,4.963,0.979,7.286,2.029c-0.257-2.153-0.826-4.296-1.695-6.357c-1.12-2.676-2.727-5.071-4.778-7.122
	c-0.782-0.799-1.62-1.528-2.508-2.183l-2.289-1.464c-0.749-0.479-1.553-0.889-2.391-1.218c-2.806-1.197-5.753-1.796-8.801-1.796
	c-3.05,0-6.016,0.6-8.816,1.782c-0.592,0.241-1.183,0.521-1.77,0.835C3.034,24.104,3.077,24.761,3.14,25.428z M27.113,21.743
	c1.68,1.018,3.228,2.245,4.609,3.658c2.317,2.316,4.142,5.035,5.412,8.069c0.998,2.365,1.643,4.83,1.926,7.348
	c1.73-1.3,3.271-2.833,4.596-4.577c1.735-2.356,3.018-5,3.798-7.839C47.947,26.49,48.2,24.53,48.2,22.6
	c0-0.946-0.048-1.905-0.142-2.851c-0.369-2.914-1.332-5.753-2.857-8.4c-1.528-2.683-3.531-4.969-5.956-6.803
	c-0.509-0.345-1.039-0.695-1.571-1.037c-0.569,0.346-1.131,0.708-1.68,1.081c-2.356,1.785-4.321,4.064-5.777,6.729
	c-1.548,2.685-2.545,5.535-2.982,8.5C27.174,20.43,27.132,21.082,27.113,21.743z"/>
</svg>
