<?xml version="1.0" encoding="utf-8"?>
<!-- Generator: Adobe Illustrator 16.0.0, SVG Export Plug-In . SVG Version: 6.00 Build 0)  -->
<!DOCTYPE svg PUBLIC "-//W3C//DTD SVG 1.1//EN" "http://www.w3.org/Graphics/SVG/1.1/DTD/svg11.dtd">
<svg version="1.1" id="Layer_1" xmlns="http://www.w3.org/2000/svg" xmlns:xlink="http://www.w3.org/1999/xlink" x="0px" y="0px"
	 width="120.41px" height="119.832px" viewBox="0 0 120.41 119.832" enable-background="new 0 0 120.41 119.832"
	 xml:space="preserve">
<path fill="#FFFFFF" d="M95.303,119.957c1.561-3.861,2.131-24.287-0.408-43.776c-1.554-11.912-3.517-22.835-4.978-30.278
	c0.399-0.121,0.789-0.265,1.166-0.439l3.648,7.611c0,0,6.977,6.079,7.455,5.427c0.48-0.651-5.504-5.89-6.163-6.377
	c-0.122-0.361-0.81-2.422-1.53-4.591l1.885,2.153c0,0,10.912,2.946,11.166,2.179c0.256-0.768-9.471-3.51-10.164-3.742
	c-0.461-0.527-1.15-2.301-2.43-4.52l5.998,2.334c0,0,10.053-1.073,9.895-1.867c-0.157-0.792-8.254,0.159-9.264,0.36
	c-0.439-0.288-3.188-2.078-5.938-3.872c0.893-2.369,0.814-5.132-0.186-7.742c3.809,1.787,7.774,1.652,10.146-0.718
	c0.75-0.75,1.272-1.662,1.587-2.678c0.691-0.121,1.348-0.445,1.876-0.972c1.401-1.403,1.36-3.719-0.092-5.171
	c-0.711-0.712-1.627-1.083-2.545-1.114c2.358-1.146,5.544-2.496,6.575-2.399c2.334,0.219,6.465,2.924,6.506,2.951
	c0.267,0.176,0.627,0.102,0.803-0.166c0.175-0.267,0.102-0.627-0.165-0.802c-0.178-0.119-4.414-2.892-7.035-3.139
	c-1.502-0.14-5.28,1.583-7.211,2.522c-0.722-1.318-1.674-2.604-2.848-3.776c-1.175-1.173-2.457-2.125-3.776-2.847
	c0.939-1.931,2.661-5.71,2.521-7.211c-0.245-2.622-3.021-6.857-3.139-7.036c-0.176-0.268-0.533-0.342-0.802-0.167
	c-0.269,0.177-0.342,0.537-0.165,0.804c0.025,0.042,2.732,4.172,2.951,6.506c0.096,1.032-1.256,4.215-2.4,6.574
	c-0.031-0.915-0.399-1.833-1.111-2.543c-1.452-1.454-3.77-1.495-5.174-0.091c-0.526,0.527-0.849,1.184-0.971,1.876
	c-1.016,0.313-1.928,0.836-2.678,1.588c-2.37,2.369-2.506,6.336-0.717,10.143c-2.613-0.999-5.375-1.077-7.744-0.184
	c-1.795-2.751-3.583-5.496-3.871-5.937c0.201-1.009,1.152-9.104,0.357-9.263c-0.793-0.159-1.864,9.894-1.864,9.894l2.333,6
	c-2.219-1.28-3.994-1.97-4.52-2.431c-0.232-0.691-2.976-10.42-3.742-10.166c-0.769,0.257,2.18,11.169,2.18,11.169l2.152,1.883
	c-2.168-0.723-4.23-1.41-4.59-1.529c-0.488-0.659-5.729-6.646-6.38-6.165c-0.649,0.481,5.429,7.456,5.429,7.456l7.61,3.647
	c-0.174,0.378-0.317,0.768-0.438,1.167c-7.443-1.46-18.367-3.423-30.279-4.976c-19.489-2.539-39.914-1.97-43.774-0.407
	c-3.859,1.559,17.957,13.97,23.812,15.518c11.269,2.982,16.032,2.342,17.554,2.162c4.646-0.545,6.968-5.055,13.254-5.328
	c1.94-0.085,11.645-1.064,19.225-1.848c0.379,1.931,1.25,3.853,2.601,5.563c-6.885-5.132-15.135,2.424-26.114,13.402
	C39.134,66.229,28.318,92.091,28.318,92.091s25.863-10.813,37.514-22.467C76.81,58.646,84.367,50.395,79.233,43.51
	c1.71,1.35,3.634,2.221,5.563,2.599c-0.783,7.58-1.762,17.285-1.848,19.227c-0.273,6.285-4.783,8.607-5.328,13.254
	c-0.18,1.522-0.82,6.285,2.16,17.556C81.332,102,93.742,123.815,95.303,119.957z"/>
</svg>
